<?xml version="1.0" encoding="UTF-8"?>
<svg width="480px" height="116px" viewBox="0 0 480 116" version="1.1" xmlns="http://www.w3.org/2000/svg" xmlns:xlink="http://www.w3.org/1999/xlink">
    <title>易知微点击背景</title>
    <defs>
        <rect id="path-1" x="0" y="0" width="480" height="116" rx="4"></rect>
    </defs>
    <g id="首页" stroke="none" stroke-width="1" fill="none" fill-rule="evenodd">
        <g id="产品模块切图" transform="translate(-937.000000, -1372.000000)">
            <g id="易知微点击背景" transform="translate(937.000000, 1372.000000)">
                <mask id="mask-2" fill="white">
                    <use xlink:href="#path-1"></use>
                </mask>
                <use id="蒙版" fill="#1D78FF" xlink:href="#path-1"></use>
                <g id="logo-易知微-英" mask="url(#mask-2)" fill="#FFFFFF" fill-opacity="0.15" fill-rule="nonzero">
                    <g transform="translate(-12.000000, -82.000000)" id="形状">
                        <path d="M52.0157274,119.253264 L37.1847969,119.253264 C33.1009174,119.253264 29.8768021,116.041775 29.6618611,111.97389 L29.6618611,111.97389 C29.6618611,107.906005 32.8859764,104.480418 37.1847969,104.480418 L111.769332,104.480418 C115.853211,104.480418 119.077326,101.05483 119.077326,96.9869452 C119.077326,96.9869452 119.077326,96.9869452 119.077326,96.9869452 L119.077326,96.9869452 C119.077326,92.9190601 115.853211,89.7075718 111.769332,89.7075718 L67.061599,89.7075718 C62.9777195,89.7075718 59.5386632,86.2819843 59.5386632,82.2140992 L59.5386632,82.2140992 L59.5386632,82.2140992 C59.5386632,78.1462141 62.7627785,74.7206266 67.061599,74.7206266 C67.061599,74.7206266 67.061599,74.7206266 67.061599,74.7206266 L111.769332,74.7206266 C115.853211,74.7206266 119.292267,71.5091384 119.292267,67.227154 L119.292267,67.227154 C119.292267,63.1592689 116.068152,59.7336815 111.984273,59.7336815 C111.984273,59.7336815 111.984273,59.7336815 111.984273,59.7336815 L37.1847969,59.7336815 C33.1009174,59.7336815 29.6618611,56.5221932 29.6618611,52.2402089 L29.6618611,52.2402089 C29.6618611,48.1723238 32.8859764,44.7467363 37.1847969,44.7467363 L52.0157274,44.7467363 C56.0996068,44.7467363 59.5386632,41.535248 59.5386632,37.2532637 L59.5386632,22.4804178 C59.5386632,18.4125326 62.7627785,14.9869452 67.061599,14.9869452 C67.061599,14.9869452 67.061599,14.9869452 67.061599,14.9869452 L134.123198,14.9869452 C138.207077,14.9869452 141.646134,11.5613577 141.646134,7.49347258 C141.646134,7.49347258 141.646134,7.49347258 141.646134,7.49347258 L141.646134,7.49347258 C141.646134,3.42558747 138.422018,0 134.123198,0 C134.123198,0 134.123198,0 134.123198,0 L7.52293578,0 C3.22411533,0.64229765 0,3.8537859 0,8.13577023 L0,156.506527 C0,160.574413 3.22411533,164 7.52293578,164 L156.477064,164 C160.560944,164 164,160.788512 164,156.506527 L164,156.506527 C164,152.438642 160.775885,149.013055 156.692005,149.013055 C156.692005,149.013055 156.692005,149.013055 156.692005,149.013055 L67.061599,149.013055 C62.9777195,149.013055 59.5386632,145.801567 59.5386632,141.733681 C59.5386632,141.733681 59.5386632,141.733681 59.5386632,141.733681 L59.5386632,126.960836 C59.5386632,122.678851 56.3145478,119.253264 52.0157274,119.253264 Z M74.3695937,119.253264 L74.3695937,119.253264 C78.4534731,119.253264 81.8925295,122.464752 81.8925295,126.746736 L81.8925295,126.746736 C81.8925295,130.814621 78.6684142,134.240209 74.3695937,134.240209 L74.3695937,134.240209 C70.2857143,134.240209 66.8466579,131.028721 66.8466579,126.746736 L66.8466579,126.746736 C67.061599,122.678851 70.2857143,119.253264 74.3695937,119.253264 Z M96.72346,119.253264 L96.72346,119.253264 C100.807339,119.253264 104.246396,122.464752 104.246396,126.746736 L104.246396,126.746736 C104.246396,130.814621 101.02228,134.240209 96.72346,134.240209 L96.72346,134.240209 C92.6395806,134.240209 89.2005242,131.028721 89.2005242,126.746736 L89.2005242,126.746736 C89.4154653,122.678851 92.6395806,119.253264 96.72346,119.253264 Z M119.077326,119.253264 L133.908257,119.253264 C137.992136,119.253264 141.431193,122.464752 141.431193,126.746736 L141.431193,126.746736 C141.431193,130.814621 138.207077,134.240209 133.908257,134.240209 L119.077326,134.240209 C114.993447,134.240209 111.554391,131.028721 111.554391,126.746736 L111.554391,126.746736 C111.769332,122.678851 114.993447,119.253264 119.077326,119.253264 Z M74.3695937,30.4020888 L89.2005242,30.4020888 C93.2844037,30.4020888 96.72346,33.613577 96.72346,37.8955614 L96.72346,37.8955614 C96.72346,41.9634465 93.4993447,45.3890339 89.2005242,45.3890339 L74.3695937,45.3890339 C70.2857143,45.3890339 66.8466579,42.1775457 66.8466579,37.8955614 L66.8466579,37.8955614 C67.061599,33.613577 70.2857143,30.4020888 74.3695937,30.4020888 Z M111.769332,30.4020888 L111.769332,30.4020888 C115.853211,30.4020888 119.292267,33.613577 119.292267,37.8955614 L119.292267,37.8955614 C119.292267,41.9634465 116.068152,45.3890339 111.769332,45.3890339 L111.769332,45.3890339 C107.685452,45.3890339 104.246396,42.1775457 104.246396,37.8955614 L104.246396,37.8955614 C104.246396,33.613577 107.470511,30.4020888 111.769332,30.4020888 Z M133.908257,30.4020888 L133.908257,30.4020888 C137.992136,30.4020888 141.431193,33.613577 141.431193,37.8955614 L141.431193,37.8955614 C141.431193,41.9634465 138.207077,45.3890339 133.908257,45.3890339 L133.908257,45.3890339 C129.824377,45.3890339 126.385321,42.1775457 126.385321,37.8955614 L126.385321,37.8955614 C126.600262,33.613577 129.824377,30.4020888 133.908257,30.4020888 Z M156.262123,0.64229765 L156.262123,0.64229765 C160.346003,0.64229765 163.785059,3.8537859 163.785059,8.13577023 L163.785059,8.13577023 C163.785059,12.2036554 160.560944,15.6292428 156.262123,15.6292428 L156.262123,15.6292428 C152.178244,15.6292428 148.739187,12.4177546 148.739187,8.13577023 L148.739187,8.13577023 C148.954128,3.8537859 152.178244,0.64229765 156.262123,0.64229765 Z"></path>
                    </g>
                </g>
                <g id="logo-易知微-英备份" mask="url(#mask-2)" fill="#FFFFFF" fill-opacity="0.05" fill-rule="nonzero">
                    <g transform="translate(356.000000, 20.000000)" id="形状">
                        <path d="M52.0157274,119.253264 L37.1847969,119.253264 C33.1009174,119.253264 29.8768021,116.041775 29.6618611,111.97389 L29.6618611,111.97389 C29.6618611,107.906005 32.8859764,104.480418 37.1847969,104.480418 L111.769332,104.480418 C115.853211,104.480418 119.077326,101.05483 119.077326,96.9869452 C119.077326,96.9869452 119.077326,96.9869452 119.077326,96.9869452 L119.077326,96.9869452 C119.077326,92.9190601 115.853211,89.7075718 111.769332,89.7075718 L67.061599,89.7075718 C62.9777195,89.7075718 59.5386632,86.2819843 59.5386632,82.2140992 L59.5386632,82.2140992 L59.5386632,82.2140992 C59.5386632,78.1462141 62.7627785,74.7206266 67.061599,74.7206266 C67.061599,74.7206266 67.061599,74.7206266 67.061599,74.7206266 L111.769332,74.7206266 C115.853211,74.7206266 119.292267,71.5091384 119.292267,67.227154 L119.292267,67.227154 C119.292267,63.1592689 116.068152,59.7336815 111.984273,59.7336815 C111.984273,59.7336815 111.984273,59.7336815 111.984273,59.7336815 L37.1847969,59.7336815 C33.1009174,59.7336815 29.6618611,56.5221932 29.6618611,52.2402089 L29.6618611,52.2402089 C29.6618611,48.1723238 32.8859764,44.7467363 37.1847969,44.7467363 L52.0157274,44.7467363 C56.0996068,44.7467363 59.5386632,41.535248 59.5386632,37.2532637 L59.5386632,22.4804178 C59.5386632,18.4125326 62.7627785,14.9869452 67.061599,14.9869452 C67.061599,14.9869452 67.061599,14.9869452 67.061599,14.9869452 L134.123198,14.9869452 C138.207077,14.9869452 141.646134,11.5613577 141.646134,7.49347258 C141.646134,7.49347258 141.646134,7.49347258 141.646134,7.49347258 L141.646134,7.49347258 C141.646134,3.42558747 138.422018,0 134.123198,0 C134.123198,0 134.123198,0 134.123198,0 L7.52293578,0 C3.22411533,0.64229765 0,3.8537859 0,8.13577023 L0,156.506527 C0,160.574413 3.22411533,164 7.52293578,164 L156.477064,164 C160.560944,164 164,160.788512 164,156.506527 L164,156.506527 C164,152.438642 160.775885,149.013055 156.692005,149.013055 C156.692005,149.013055 156.692005,149.013055 156.692005,149.013055 L67.061599,149.013055 C62.9777195,149.013055 59.5386632,145.801567 59.5386632,141.733681 C59.5386632,141.733681 59.5386632,141.733681 59.5386632,141.733681 L59.5386632,126.960836 C59.5386632,122.678851 56.3145478,119.253264 52.0157274,119.253264 Z M74.3695937,119.253264 L74.3695937,119.253264 C78.4534731,119.253264 81.8925295,122.464752 81.8925295,126.746736 L81.8925295,126.746736 C81.8925295,130.814621 78.6684142,134.240209 74.3695937,134.240209 L74.3695937,134.240209 C70.2857143,134.240209 66.8466579,131.028721 66.8466579,126.746736 L66.8466579,126.746736 C67.061599,122.678851 70.2857143,119.253264 74.3695937,119.253264 Z M96.72346,119.253264 L96.72346,119.253264 C100.807339,119.253264 104.246396,122.464752 104.246396,126.746736 L104.246396,126.746736 C104.246396,130.814621 101.02228,134.240209 96.72346,134.240209 L96.72346,134.240209 C92.6395806,134.240209 89.2005242,131.028721 89.2005242,126.746736 L89.2005242,126.746736 C89.4154653,122.678851 92.6395806,119.253264 96.72346,119.253264 Z M119.077326,119.253264 L133.908257,119.253264 C137.992136,119.253264 141.431193,122.464752 141.431193,126.746736 L141.431193,126.746736 C141.431193,130.814621 138.207077,134.240209 133.908257,134.240209 L119.077326,134.240209 C114.993447,134.240209 111.554391,131.028721 111.554391,126.746736 L111.554391,126.746736 C111.769332,122.678851 114.993447,119.253264 119.077326,119.253264 Z M74.3695937,30.4020888 L89.2005242,30.4020888 C93.2844037,30.4020888 96.72346,33.613577 96.72346,37.8955614 L96.72346,37.8955614 C96.72346,41.9634465 93.4993447,45.3890339 89.2005242,45.3890339 L74.3695937,45.3890339 C70.2857143,45.3890339 66.8466579,42.1775457 66.8466579,37.8955614 L66.8466579,37.8955614 C67.061599,33.613577 70.2857143,30.4020888 74.3695937,30.4020888 Z M111.769332,30.4020888 L111.769332,30.4020888 C115.853211,30.4020888 119.292267,33.613577 119.292267,37.8955614 L119.292267,37.8955614 C119.292267,41.9634465 116.068152,45.3890339 111.769332,45.3890339 L111.769332,45.3890339 C107.685452,45.3890339 104.246396,42.1775457 104.246396,37.8955614 L104.246396,37.8955614 C104.246396,33.613577 107.470511,30.4020888 111.769332,30.4020888 Z M133.908257,30.4020888 L133.908257,30.4020888 C137.992136,30.4020888 141.431193,33.613577 141.431193,37.8955614 L141.431193,37.8955614 C141.431193,41.9634465 138.207077,45.3890339 133.908257,45.3890339 L133.908257,45.3890339 C129.824377,45.3890339 126.385321,42.1775457 126.385321,37.8955614 L126.385321,37.8955614 C126.600262,33.613577 129.824377,30.4020888 133.908257,30.4020888 Z M156.262123,0.64229765 L156.262123,0.64229765 C160.346003,0.64229765 163.785059,3.8537859 163.785059,8.13577023 L163.785059,8.13577023 C163.785059,12.2036554 160.560944,15.6292428 156.262123,15.6292428 L156.262123,15.6292428 C152.178244,15.6292428 148.739187,12.4177546 148.739187,8.13577023 L148.739187,8.13577023 C148.954128,3.8537859 152.178244,0.64229765 156.262123,0.64229765 Z"></path>
                    </g>
                </g>
            </g>
        </g>
    </g>
</svg>